<?xml version="1.0" encoding="UTF-8"?>
<svg width="225px" height="225px" viewBox="0 0 225 225" version="1.1" xmlns="http://www.w3.org/2000/svg" xmlns:xlink="http://www.w3.org/1999/xlink">
    <!-- Generator: Sketch 52.6 (67491) - http://www.bohemiancoding.com/sketch -->
    <title>icon_origin_225x225</title>
    <desc>Created with Sketch.</desc>
    <g id="icon_origin_225x225" stroke="none" stroke-width="1" fill="none" fill-rule="evenodd">
        <polygon id="Rectangle" fill="#434245" points="10 39.1587646 112.5 1 215 39.1587646 198.378378 177.03808 112.5 224 26.6216216 177.03808"></polygon>
        <polygon id="Rectangle-Copy" fill="#2A2530" points="112.5 1 215 39.1587646 198.378378 177.03808 112.5 224"></polygon>
        <path d="M112.5,182 C74.1162099,182 43,150.88379 43,112.5 C43,74.1162099 74.1162099,43 112.5,43 C150.88379,43 182,74.1162099 182,112.5 C182,150.88379 150.88379,182 112.5,182 Z M112.5,172 C145.360943,172 172,145.360943 172,112.5 C172,79.6390574 145.360943,53 112.5,53 C79.6390574,53 53,79.6390574 53,112.5 C53,145.360943 79.6390574,172 112.5,172 Z" id="Oval-Copy" fill="#514F52" fill-rule="nonzero" transform="translate(112.500000, 112.500000) rotate(-360.000000) translate(-112.500000, -112.500000) "></path>
        <path d="M54.156252,100.768573 C56.2037669,101.459922 58.1275105,102.621414 59.759145,104.253048 C65.4217472,109.915651 65.4217472,119.096543 59.759145,124.759145 C54.0965428,130.421747 44.9156506,130.421747 39.2530483,124.759145 C33.5904461,119.096543 33.5904461,109.915651 39.2530483,104.253048 C40.6355913,102.870505 42.2278624,101.825515 43.9274501,101.118077 C48.6894617,72.2119047 71.2873812,49.3173431 100.042188,44.1134126 C100.749909,42.3440239 101.820195,40.6859013 103.253048,39.2530483 C108.915651,33.5904461 118.096543,33.5904461 123.759145,39.2530483 C129.421747,44.9156506 129.421747,54.0965428 123.759145,59.759145 C122.086068,61.4322215 120.105856,62.6109696 118,63.2953894 L118,99.083119 C119.7314,99.7909078 121.353648,100.847551 122.759145,102.253048 C124.161342,103.655246 125.216322,105.273177 125.924083,107 L161.720773,107 C162.405776,104.898694 163.583201,102.922895 165.253048,101.253048 C170.915651,95.5904461 180.096543,95.5904461 185.759145,101.253048 C191.421747,106.915651 191.421747,116.096543 185.759145,121.759145 C184.322102,123.196188 182.65847,124.268541 180.883256,124.976205 C175.674007,153.716111 152.791716,176.301897 123.900453,181.069495 C123.192925,182.774807 122.145822,184.372468 120.759145,185.759145 C115.096543,191.421747 105.915651,191.421747 100.253048,185.759145 C94.5904461,180.096543 94.5904461,170.915651 100.253048,165.253048 C105.915651,159.590446 115.096543,159.590446 120.759145,165.253048 C122.387138,166.881042 123.547085,168.799842 124.238985,170.842236 C147.371018,166.213484 165.65905,148.171502 170.647805,125.171569 C168.678121,124.472852 166.82928,123.335377 165.253048,121.759145 C163.847551,120.353648 162.790908,118.7314 162.083119,117 L126.295389,117 C125.61097,119.105856 124.432221,121.086068 122.759145,122.759145 C117.096543,128.421747 107.915651,128.421747 102.253048,122.759145 C96.5904461,117.096543 96.5904461,107.915651 102.253048,102.253048 C103.922895,100.583201 105.898694,99.4057762 108,98.7207728 L108,62.9240833 C106.273177,62.2163219 104.655246,61.1613425 103.253048,59.759145 C101.673141,58.179238 100.53404,56.3254497 99.8357438,54.3506097 C76.8298172,59.337616 58.7830765,77.6305138 54.156252,100.768573 Z" id="Combined-Shape" fill="#00C489" fill-rule="nonzero"></path>
    </g>
</svg>